# xmcd
#
# Track frame offsets:
#	150
#	13362
#	30745
#	47487
#	49150
#	66780
#	90532
#	104252
#	120300
#	140105
#	152122
#	159300
#
# Disc length: 2395 seconds
#
# Revision: 1
# Processed by: cddbd v1.4PL0 Copyright (c) Steve Scherf et al.
# Submitted via: audiograbber 1.81.03
#
DISCID=9a09590c
DTITLE=Lisa Fitz - Die Heilige Hur
DYEAR=1982
DGENRE=Comedy
TTITLE0=Ouvertüre: Hallo Europa!
TTITLE1=Gütiger Politiker
TTITLE2=Der Deutsche Hund
TTITLE3=Wenn Ich Ein Vöglein Wär
TTITLE4=Porno
TTITLE5=Deutschland Im Dreck
TTITLE6=Ordnung Muß Sein
TTITLE7=Der Deutsche Polizist
TTITLE8=So Stell Ich Mir Die Freizeit Vor
TTITLE9=I Bin Traurig
TTITLE10=Der Autogrammsammler
TTITLE11=Mein Mann Ist Perser
EXTD=Bayerische Kaberetistin
EXTT0=
EXTT1=
EXTT2=
EXTT3=
EXTT4=
EXTT5=
EXTT6=
EXTT7=Nimm ihm nie sein Mützerl weg
EXTT8=
EXTT9=
EXTT10=
EXTT11=ein ganz perverser
PLAYORDER=
